<svg width="210" height="214" viewBox="0 0 210 214" fill="none" xmlns="http://www.w3.org/2000/svg">
<rect x="0.5" y="2.5" width="69" height="69" stroke="black"/>
<rect x="70.5" y="2.5" width="69" height="69" stroke="black"/>
<rect x="140.5" y="2.5" width="69" height="69" stroke="black"/>
<rect x="0.5" y="72.5" width="69" height="69" stroke="black"/>
<rect x="0.5" y="142.5" width="69" height="69" stroke="black"/>
<rect x="70.5" y="72.5" width="69" height="69" fill="#FF0000" stroke="black"/>
<rect x="70.5" y="142.5" width="69" height="69" stroke="black"/>
<rect x="140.5" y="72.5" width="69" height="69" stroke="black"/>
<rect x="140.5" y="142.5" width="69" height="69" stroke="black"/>
<path d="M27.1537 35.919C27.1537 30.3003 28.0684 25.923 29.8977 22.787C31.7271 19.6183 34.9284 18.034 39.5017 18.034C44.0424 18.034 47.2274 19.6183 49.0567 22.787C50.8861 25.923 51.8007 30.3003 51.8007 35.919C51.8007 41.6357 50.8861 46.0783 49.0567 49.247C47.2274 52.4157 44.0424 54 39.5017 54C34.9284 54 31.7271 52.4157 29.8977 49.247C28.0684 46.0783 27.1537 41.6357 27.1537 35.919ZM47.3907 35.919C47.3907 33.077 47.1947 30.676 46.8027 28.716C46.4434 26.7233 45.6757 25.1227 44.4997 23.914C43.3564 22.7053 41.6904 22.101 39.5017 22.101C37.2804 22.101 35.5817 22.7053 34.4057 23.914C33.2624 25.1227 32.4947 26.7233 32.1027 28.716C31.7434 30.676 31.5637 33.077 31.5637 35.919C31.5637 38.859 31.7434 41.3253 32.1027 43.318C32.4947 45.3107 33.2624 46.9113 34.4057 48.12C35.5817 49.3287 37.2804 49.933 39.5017 49.933C41.6904 49.933 43.3564 49.3287 44.4997 48.12C45.6757 46.9113 46.4434 45.3107 46.8027 43.318C47.1947 41.3253 47.3907 38.859 47.3907 35.919Z" fill="black"/>
<path d="M27.1537 101.919C27.1537 96.3003 28.0684 91.923 29.8977 88.787C31.7271 85.6183 34.9284 84.034 39.5017 84.034C44.0424 84.034 47.2274 85.6183 49.0567 88.787C50.8861 91.923 51.8007 96.3003 51.8007 101.919C51.8007 107.636 50.8861 112.078 49.0567 115.247C47.2274 118.416 44.0424 120 39.5017 120C34.9284 120 31.7271 118.416 29.8977 115.247C28.0684 112.078 27.1537 107.636 27.1537 101.919ZM47.3907 101.919C47.3907 99.077 47.1947 96.676 46.8027 94.716C46.4434 92.7233 45.6757 91.1227 44.4997 89.914C43.3564 88.7053 41.6904 88.101 39.5017 88.101C37.2804 88.101 35.5817 88.7053 34.4057 89.914C33.2624 91.1227 32.4947 92.7233 32.1027 94.716C31.7434 96.676 31.5637 99.077 31.5637 101.919C31.5637 104.859 31.7434 107.325 32.1027 109.318C32.4947 111.311 33.2624 112.911 34.4057 114.12C35.5817 115.329 37.2804 115.933 39.5017 115.933C41.6904 115.933 43.3564 115.329 44.4997 114.12C45.6757 112.911 46.4434 111.311 46.8027 109.318C47.1947 107.325 47.3907 104.859 47.3907 101.919Z" fill="black"/>
<path d="M27.1537 175.919C27.1537 170.3 28.0684 165.923 29.8977 162.787C31.7271 159.618 34.9284 158.034 39.5017 158.034C44.0424 158.034 47.2274 159.618 49.0567 162.787C50.8861 165.923 51.8007 170.3 51.8007 175.919C51.8007 181.636 50.8861 186.078 49.0567 189.247C47.2274 192.416 44.0424 194 39.5017 194C34.9284 194 31.7271 192.416 29.8977 189.247C28.0684 186.078 27.1537 181.636 27.1537 175.919ZM47.3907 175.919C47.3907 173.077 47.1947 170.676 46.8027 168.716C46.4434 166.723 45.6757 165.123 44.4997 163.914C43.3564 162.705 41.6904 162.101 39.5017 162.101C37.2804 162.101 35.5817 162.705 34.4057 163.914C33.2624 165.123 32.4947 166.723 32.1027 168.716C31.7434 170.676 31.5637 173.077 31.5637 175.919C31.5637 178.859 31.7434 181.325 32.1027 183.318C32.4947 185.311 33.2624 186.911 34.4057 188.12C35.5817 189.329 37.2804 189.933 39.5017 189.933C41.6904 189.933 43.3564 189.329 44.4997 188.12C45.6757 186.911 46.4434 185.311 46.8027 183.318C47.1947 181.325 47.3907 178.859 47.3907 175.919Z" fill="black"/>
<path d="M92.1537 35.919C92.1537 30.3003 93.0684 25.923 94.8977 22.787C96.7271 19.6183 99.9284 18.034 104.502 18.034C109.042 18.034 112.227 19.6183 114.057 22.787C115.886 25.923 116.801 30.3003 116.801 35.919C116.801 41.6357 115.886 46.0783 114.057 49.247C112.227 52.4157 109.042 54 104.502 54C99.9284 54 96.7271 52.4157 94.8977 49.247C93.0684 46.0783 92.1537 41.6357 92.1537 35.919ZM112.391 35.919C112.391 33.077 112.195 30.676 111.803 28.716C111.443 26.7233 110.676 25.1227 109.5 23.914C108.356 22.7053 106.69 22.101 104.502 22.101C102.28 22.101 100.582 22.7053 99.4057 23.914C98.2624 25.1227 97.4947 26.7233 97.1027 28.716C96.7434 30.676 96.5637 33.077 96.5637 35.919C96.5637 38.859 96.7434 41.3253 97.1027 43.318C97.4947 45.3107 98.2624 46.9113 99.4057 48.12C100.582 49.3287 102.28 49.933 104.502 49.933C106.69 49.933 108.356 49.3287 109.5 48.12C110.676 46.9113 111.443 45.3107 111.803 43.318C112.195 41.3253 112.391 38.859 112.391 35.919Z" fill="black"/>
<path d="M93.0128 93.491C93.2414 90.4857 94.4011 88.1337 96.4918 86.435C98.5824 84.7363 101.294 83.887 104.626 83.887C106.847 83.887 108.758 84.2953 110.359 85.112C111.992 85.896 113.217 86.974 114.034 88.346C114.883 89.718 115.308 91.2697 115.308 93.001C115.308 95.0263 114.72 96.774 113.544 98.244C112.4 99.714 110.898 100.661 109.036 101.086V101.331C111.159 101.854 112.841 102.883 114.083 104.418C115.324 105.953 115.945 107.962 115.945 110.445C115.945 112.307 115.52 113.989 114.671 115.492C113.821 116.962 112.547 118.122 110.849 118.971C109.15 119.82 107.108 120.245 104.724 120.245C101.261 120.245 98.4191 119.347 96.1978 117.55C93.9764 115.721 92.7351 113.14 92.4738 109.808H96.7858C97.0144 111.768 97.8148 113.369 99.1868 114.61C100.559 115.851 102.388 116.472 104.675 116.472C106.961 116.472 108.693 115.884 109.869 114.708C111.077 113.499 111.682 111.948 111.682 110.053C111.682 107.603 110.865 105.839 109.232 104.761C107.598 103.683 105.132 103.144 101.833 103.144H100.706V99.42H101.882C104.887 99.3873 107.157 98.8973 108.693 97.95C110.228 96.97 110.996 95.4673 110.996 93.442C110.996 91.7107 110.424 90.3223 109.281 89.277C108.17 88.2317 106.569 87.709 104.479 87.709C102.453 87.709 100.82 88.2317 99.5788 89.277C98.3374 90.3223 97.6024 91.727 97.3738 93.491H93.0128Z" fill="black"/>
<path d="M92.1537 175.919C92.1537 170.3 93.0684 165.923 94.8977 162.787C96.7271 159.618 99.9284 158.034 104.502 158.034C109.042 158.034 112.227 159.618 114.057 162.787C115.886 165.923 116.801 170.3 116.801 175.919C116.801 181.636 115.886 186.078 114.057 189.247C112.227 192.416 109.042 194 104.502 194C99.9284 194 96.7271 192.416 94.8977 189.247C93.0684 186.078 92.1537 181.636 92.1537 175.919ZM112.391 175.919C112.391 173.077 112.195 170.676 111.803 168.716C111.443 166.723 110.676 165.123 109.5 163.914C108.356 162.705 106.69 162.101 104.502 162.101C102.28 162.101 100.582 162.705 99.4057 163.914C98.2624 165.123 97.4947 166.723 97.1027 168.716C96.7434 170.676 96.5637 173.077 96.5637 175.919C96.5637 178.859 96.7434 181.325 97.1027 183.318C97.4947 185.311 98.2624 186.911 99.4057 188.12C100.582 189.329 102.28 189.933 104.502 189.933C106.69 189.933 108.356 189.329 109.5 188.12C110.676 186.911 111.443 185.311 111.803 183.318C112.195 181.325 112.391 178.859 112.391 175.919Z" fill="black"/>
<path d="M159.154 35.919C159.154 30.3003 160.068 25.923 161.898 22.787C163.727 19.6183 166.928 18.034 171.502 18.034C176.042 18.034 179.227 19.6183 181.057 22.787C182.886 25.923 183.801 30.3003 183.801 35.919C183.801 41.6357 182.886 46.0783 181.057 49.247C179.227 52.4157 176.042 54 171.502 54C166.928 54 163.727 52.4157 161.898 49.247C160.068 46.0783 159.154 41.6357 159.154 35.919ZM179.391 35.919C179.391 33.077 179.195 30.676 178.803 28.716C178.443 26.7233 177.676 25.1227 176.5 23.914C175.356 22.7053 173.69 22.101 171.502 22.101C169.28 22.101 167.582 22.7053 166.406 23.914C165.262 25.1227 164.495 26.7233 164.103 28.716C163.743 30.676 163.564 33.077 163.564 35.919C163.564 38.859 163.743 41.3253 164.103 43.318C164.495 45.3107 165.262 46.9113 166.406 48.12C167.582 49.3287 169.28 49.933 171.502 49.933C173.69 49.933 175.356 49.3287 176.5 48.12C177.676 46.9113 178.443 45.3107 178.803 43.318C179.195 41.3253 179.391 38.859 179.391 35.919Z" fill="black"/>
<path d="M159.154 101.919C159.154 96.3003 160.068 91.923 161.898 88.787C163.727 85.6183 166.928 84.034 171.502 84.034C176.042 84.034 179.227 85.6183 181.057 88.787C182.886 91.923 183.801 96.3003 183.801 101.919C183.801 107.636 182.886 112.078 181.057 115.247C179.227 118.416 176.042 120 171.502 120C166.928 120 163.727 118.416 161.898 115.247C160.068 112.078 159.154 107.636 159.154 101.919ZM179.391 101.919C179.391 99.077 179.195 96.676 178.803 94.716C178.443 92.7233 177.676 91.1227 176.5 89.914C175.356 88.7053 173.69 88.101 171.502 88.101C169.28 88.101 167.582 88.7053 166.406 89.914C165.262 91.1227 164.495 92.7233 164.103 94.716C163.743 96.676 163.564 99.077 163.564 101.919C163.564 104.859 163.743 107.325 164.103 109.318C164.495 111.311 165.262 112.911 166.406 114.12C167.582 115.329 169.28 115.933 171.502 115.933C173.69 115.933 175.356 115.329 176.5 114.12C177.676 112.911 178.443 111.311 178.803 109.318C179.195 107.325 179.391 104.859 179.391 101.919Z" fill="black"/>
<path d="M159.154 175.919C159.154 170.3 160.068 165.923 161.898 162.787C163.727 159.618 166.928 158.034 171.502 158.034C176.042 158.034 179.227 159.618 181.057 162.787C182.886 165.923 183.801 170.3 183.801 175.919C183.801 181.636 182.886 186.078 181.057 189.247C179.227 192.416 176.042 194 171.502 194C166.928 194 163.727 192.416 161.898 189.247C160.068 186.078 159.154 181.636 159.154 175.919ZM179.391 175.919C179.391 173.077 179.195 170.676 178.803 168.716C178.443 166.723 177.676 165.123 176.5 163.914C175.356 162.705 173.69 162.101 171.502 162.101C169.28 162.101 167.582 162.705 166.406 163.914C165.262 165.123 164.495 166.723 164.103 168.716C163.743 170.676 163.564 173.077 163.564 175.919C163.564 178.859 163.743 181.325 164.103 183.318C164.495 185.311 165.262 186.911 166.406 188.12C167.582 189.329 169.28 189.933 171.502 189.933C173.69 189.933 175.356 189.329 176.5 188.12C177.676 186.911 178.443 185.311 178.803 183.318C179.195 181.325 179.391 178.859 179.391 175.919Z" fill="black"/>
</svg>
