<svg width="210" height="214" viewBox="0 0 210 214" fill="none" xmlns="http://www.w3.org/2000/svg">
<rect x="0.5" y="2.5" width="69" height="69" stroke="black"/>
<rect x="70.5" y="2.5" width="69" height="69" fill="#00FF00" stroke="black"/>
<rect x="140.5" y="2.5" width="69" height="69" stroke="black"/>
<rect x="0.5" y="72.5" width="69" height="69" fill="#00FF00" stroke="black"/>
<rect x="0.5" y="142.5" width="69" height="69" stroke="black"/>
<rect x="70.5" y="72.5" width="69" height="69" fill="white" stroke="black"/>
<rect x="70.5" y="142.5" width="69" height="69" fill="#00FF00" stroke="black"/>
<rect x="140.5" y="72.5" width="69" height="69" fill="#00FF00" stroke="black"/>
<rect x="140.5" y="142.5" width="69" height="69" stroke="black"/>
<path d="M27.1537 35.919C27.1537 30.3003 28.0684 25.923 29.8977 22.787C31.7271 19.6183 34.9284 18.034 39.5017 18.034C44.0424 18.034 47.2274 19.6183 49.0567 22.787C50.8861 25.923 51.8007 30.3003 51.8007 35.919C51.8007 41.6357 50.8861 46.0783 49.0567 49.247C47.2274 52.4157 44.0424 54 39.5017 54C34.9284 54 31.7271 52.4157 29.8977 49.247C28.0684 46.0783 27.1537 41.6357 27.1537 35.919ZM47.3907 35.919C47.3907 33.077 47.1947 30.676 46.8027 28.716C46.4434 26.7233 45.6757 25.1227 44.4997 23.914C43.3564 22.7053 41.6904 22.101 39.5017 22.101C37.2804 22.101 35.5817 22.7053 34.4057 23.914C33.2624 25.1227 32.4947 26.7233 32.1027 28.716C31.7434 30.676 31.5637 33.077 31.5637 35.919C31.5637 38.859 31.7434 41.3253 32.1027 43.318C32.4947 45.3107 33.2624 46.9113 34.4057 48.12C35.5817 49.3287 37.2804 49.933 39.5017 49.933C41.6904 49.933 43.3564 49.3287 44.4997 48.12C45.6757 46.9113 46.4434 45.3107 46.8027 43.318C47.1947 41.3253 47.3907 38.859 47.3907 35.919Z" fill="black"/>
<path d="M33.5143 88.64V84.573H42.7263V120H38.2183V88.64H33.5143Z" fill="black"/>
<path d="M27.1537 175.919C27.1537 170.3 28.0684 165.923 29.8977 162.787C31.7271 159.618 34.9284 158.034 39.5017 158.034C44.0424 158.034 47.2274 159.618 49.0567 162.787C50.8861 165.923 51.8007 170.3 51.8007 175.919C51.8007 181.636 50.8861 186.078 49.0567 189.247C47.2274 192.416 44.0424 194 39.5017 194C34.9284 194 31.7271 192.416 29.8977 189.247C28.0684 186.078 27.1537 181.636 27.1537 175.919ZM47.3907 175.919C47.3907 173.077 47.1947 170.676 46.8027 168.716C46.4434 166.723 45.6757 165.123 44.4997 163.914C43.3564 162.705 41.6904 162.101 39.5017 162.101C37.2804 162.101 35.5817 162.705 34.4057 163.914C33.2624 165.123 32.4947 166.723 32.1027 168.716C31.7434 170.676 31.5637 173.077 31.5637 175.919C31.5637 178.859 31.7434 181.325 32.1027 183.318C32.4947 185.311 33.2624 186.911 34.4057 188.12C35.5817 189.329 37.2804 189.933 39.5017 189.933C41.6904 189.933 43.3564 189.329 44.4997 188.12C45.6757 186.911 46.4434 185.311 46.8027 183.318C47.1947 181.325 47.3907 178.859 47.3907 175.919Z" fill="black"/>
<path d="M98.5143 22.64V18.573H107.726V54H103.218V22.64H98.5143Z" fill="black"/>
<path d="M92.1537 101.919C92.1537 96.3003 93.0684 91.923 94.8977 88.787C96.7271 85.6183 99.9284 84.034 104.502 84.034C109.042 84.034 112.227 85.6183 114.057 88.787C115.886 91.923 116.801 96.3003 116.801 101.919C116.801 107.636 115.886 112.078 114.057 115.247C112.227 118.416 109.042 120 104.502 120C99.9284 120 96.7271 118.416 94.8977 115.247C93.0684 112.078 92.1537 107.636 92.1537 101.919ZM112.391 101.919C112.391 99.077 112.195 96.676 111.803 94.716C111.443 92.7233 110.676 91.1227 109.5 89.914C108.356 88.7053 106.69 88.101 104.502 88.101C102.28 88.101 100.582 88.7053 99.4057 89.914C98.2624 91.1227 97.4947 92.7233 97.1027 94.716C96.7434 96.676 96.5637 99.077 96.5637 101.919C96.5637 104.859 96.7434 107.325 97.1027 109.318C97.4947 111.311 98.2624 112.911 99.4057 114.12C100.582 115.329 102.28 115.933 104.502 115.933C106.69 115.933 108.356 115.329 109.5 114.12C110.676 112.911 111.443 111.311 111.803 109.318C112.195 107.325 112.391 104.859 112.391 101.919Z" fill="black"/>
<path d="M98.5143 162.64V158.573H107.726V194H103.218V162.64H98.5143Z" fill="black"/>
<path d="M159.154 35.919C159.154 30.3003 160.068 25.923 161.898 22.787C163.727 19.6183 166.928 18.034 171.502 18.034C176.042 18.034 179.227 19.6183 181.057 22.787C182.886 25.923 183.801 30.3003 183.801 35.919C183.801 41.6357 182.886 46.0783 181.057 49.247C179.227 52.4157 176.042 54 171.502 54C166.928 54 163.727 52.4157 161.898 49.247C160.068 46.0783 159.154 41.6357 159.154 35.919ZM179.391 35.919C179.391 33.077 179.195 30.676 178.803 28.716C178.443 26.7233 177.676 25.1227 176.5 23.914C175.356 22.7053 173.69 22.101 171.502 22.101C169.28 22.101 167.582 22.7053 166.406 23.914C165.262 25.1227 164.495 26.7233 164.103 28.716C163.743 30.676 163.564 33.077 163.564 35.919C163.564 38.859 163.743 41.3253 164.103 43.318C164.495 45.3107 165.262 46.9113 166.406 48.12C167.582 49.3287 169.28 49.933 171.502 49.933C173.69 49.933 175.356 49.3287 176.5 48.12C177.676 46.9113 178.443 45.3107 178.803 43.318C179.195 41.3253 179.391 38.859 179.391 35.919Z" fill="black"/>
<path d="M165.514 88.64V84.573H174.726V120H170.218V88.64H165.514Z" fill="black"/>
<path d="M159.154 175.919C159.154 170.3 160.068 165.923 161.898 162.787C163.727 159.618 166.928 158.034 171.502 158.034C176.042 158.034 179.227 159.618 181.057 162.787C182.886 165.923 183.801 170.3 183.801 175.919C183.801 181.636 182.886 186.078 181.057 189.247C179.227 192.416 176.042 194 171.502 194C166.928 194 163.727 192.416 161.898 189.247C160.068 186.078 159.154 181.636 159.154 175.919ZM179.391 175.919C179.391 173.077 179.195 170.676 178.803 168.716C178.443 166.723 177.676 165.123 176.5 163.914C175.356 162.705 173.69 162.101 171.502 162.101C169.28 162.101 167.582 162.705 166.406 163.914C165.262 165.123 164.495 166.723 164.103 168.716C163.743 170.676 163.564 173.077 163.564 175.919C163.564 178.859 163.743 181.325 164.103 183.318C164.495 185.311 165.262 186.911 166.406 188.12C167.582 189.329 169.28 189.933 171.502 189.933C173.69 189.933 175.356 189.329 176.5 188.12C177.676 186.911 178.443 185.311 178.803 183.318C179.195 181.325 179.391 178.859 179.391 175.919Z" fill="black"/>
</svg>
