<svg width="210" height="214" viewBox="0 0 210 214" fill="none" xmlns="http://www.w3.org/2000/svg">
<rect x="0.5" y="0.5" width="69" height="69" stroke="black"/>
<rect x="70.5" y="0.5" width="69" height="69" stroke="black"/>
<rect x="140.5" y="0.5" width="69" height="69" stroke="black"/>
<rect x="0.5" y="70.5" width="69" height="69" stroke="black"/>
<rect x="0.5" y="140.5" width="69" height="69" stroke="black"/>
<rect x="70.5" y="70.5" width="69" height="69" stroke="black"/>
<rect x="70.5" y="140.5" width="69" height="69" stroke="black"/>
<rect x="140.5" y="70.5" width="69" height="69" stroke="black"/>
<rect x="140.5" y="140.5" width="69" height="69" stroke="black"/>
<path d="M26.1537 35.919C26.1537 30.3003 27.0684 25.923 28.8977 22.787C30.7271 19.6183 33.9284 18.034 38.5017 18.034C43.0424 18.034 46.2274 19.6183 48.0567 22.787C49.8861 25.923 50.8007 30.3003 50.8007 35.919C50.8007 41.6357 49.8861 46.0783 48.0567 49.247C46.2274 52.4157 43.0424 54 38.5017 54C33.9284 54 30.7271 52.4157 28.8977 49.247C27.0684 46.0783 26.1537 41.6357 26.1537 35.919ZM46.3907 35.919C46.3907 33.077 46.1947 30.676 45.8027 28.716C45.4434 26.7233 44.6757 25.1227 43.4997 23.914C42.3564 22.7053 40.6904 22.101 38.5017 22.101C36.2804 22.101 34.5817 22.7053 33.4057 23.914C32.2624 25.1227 31.4947 26.7233 31.1027 28.716C30.7434 30.676 30.5637 33.077 30.5637 35.919C30.5637 38.859 30.7434 41.3253 31.1027 43.318C31.4947 45.3107 32.2624 46.9113 33.4057 48.12C34.5817 49.3287 36.2804 49.933 38.5017 49.933C40.6904 49.933 42.3564 49.3287 43.4997 48.12C44.6757 46.9113 45.4434 45.3107 45.8027 43.318C46.1947 41.3253 46.3907 38.859 46.3907 35.919Z" fill="black"/>
<path d="M26.1537 101.919C26.1537 96.3003 27.0684 91.923 28.8977 88.787C30.7271 85.6183 33.9284 84.034 38.5017 84.034C43.0424 84.034 46.2274 85.6183 48.0567 88.787C49.8861 91.923 50.8007 96.3003 50.8007 101.919C50.8007 107.636 49.8861 112.078 48.0567 115.247C46.2274 118.416 43.0424 120 38.5017 120C33.9284 120 30.7271 118.416 28.8977 115.247C27.0684 112.078 26.1537 107.636 26.1537 101.919ZM46.3907 101.919C46.3907 99.077 46.1947 96.676 45.8027 94.716C45.4434 92.7233 44.6757 91.1227 43.4997 89.914C42.3564 88.7053 40.6904 88.101 38.5017 88.101C36.2804 88.101 34.5817 88.7053 33.4057 89.914C32.2624 91.1227 31.4947 92.7233 31.1027 94.716C30.7434 96.676 30.5637 99.077 30.5637 101.919C30.5637 104.859 30.7434 107.325 31.1027 109.318C31.4947 111.311 32.2624 112.911 33.4057 114.12C34.5817 115.329 36.2804 115.933 38.5017 115.933C40.6904 115.933 42.3564 115.329 43.4997 114.12C44.6757 112.911 45.4434 111.311 45.8027 109.318C46.1947 107.325 46.3907 104.859 46.3907 101.919Z" fill="black"/>
<path d="M26.1537 175.919C26.1537 170.3 27.0684 165.923 28.8977 162.787C30.7271 159.618 33.9284 158.034 38.5017 158.034C43.0424 158.034 46.2274 159.618 48.0567 162.787C49.8861 165.923 50.8007 170.3 50.8007 175.919C50.8007 181.636 49.8861 186.078 48.0567 189.247C46.2274 192.416 43.0424 194 38.5017 194C33.9284 194 30.7271 192.416 28.8977 189.247C27.0684 186.078 26.1537 181.636 26.1537 175.919ZM46.3907 175.919C46.3907 173.077 46.1947 170.676 45.8027 168.716C45.4434 166.723 44.6757 165.123 43.4997 163.914C42.3564 162.705 40.6904 162.101 38.5017 162.101C36.2804 162.101 34.5817 162.705 33.4057 163.914C32.2624 165.123 31.4947 166.723 31.1027 168.716C30.7434 170.676 30.5637 173.077 30.5637 175.919C30.5637 178.859 30.7434 181.325 31.1027 183.318C31.4947 185.311 32.2624 186.911 33.4057 188.12C34.5817 189.329 36.2804 189.933 38.5017 189.933C40.6904 189.933 42.3564 189.329 43.4997 188.12C44.6757 186.911 45.4434 185.311 45.8027 183.318C46.1947 181.325 46.3907 178.859 46.3907 175.919Z" fill="black"/>
<path d="M91.1537 35.919C91.1537 30.3003 92.0684 25.923 93.8977 22.787C95.7271 19.6183 98.9284 18.034 103.502 18.034C108.042 18.034 111.227 19.6183 113.057 22.787C114.886 25.923 115.801 30.3003 115.801 35.919C115.801 41.6357 114.886 46.0783 113.057 49.247C111.227 52.4157 108.042 54 103.502 54C98.9284 54 95.7271 52.4157 93.8977 49.247C92.0684 46.0783 91.1537 41.6357 91.1537 35.919ZM111.391 35.919C111.391 33.077 111.195 30.676 110.803 28.716C110.443 26.7233 109.676 25.1227 108.5 23.914C107.356 22.7053 105.69 22.101 103.502 22.101C101.28 22.101 99.5817 22.7053 98.4057 23.914C97.2624 25.1227 96.4947 26.7233 96.1027 28.716C95.7434 30.676 95.5637 33.077 95.5637 35.919C95.5637 38.859 95.7434 41.3253 96.1027 43.318C96.4947 45.3107 97.2624 46.9113 98.4057 48.12C99.5817 49.3287 101.28 49.933 103.502 49.933C105.69 49.933 107.356 49.3287 108.5 48.12C109.676 46.9113 110.443 45.3107 110.803 43.318C111.195 41.3253 111.391 38.859 111.391 35.919Z" fill="black"/>
<path d="M91.1537 101.919C91.1537 96.3003 92.0684 91.923 93.8977 88.787C95.7271 85.6183 98.9284 84.034 103.502 84.034C108.042 84.034 111.227 85.6183 113.057 88.787C114.886 91.923 115.801 96.3003 115.801 101.919C115.801 107.636 114.886 112.078 113.057 115.247C111.227 118.416 108.042 120 103.502 120C98.9284 120 95.7271 118.416 93.8977 115.247C92.0684 112.078 91.1537 107.636 91.1537 101.919ZM111.391 101.919C111.391 99.077 111.195 96.676 110.803 94.716C110.443 92.7233 109.676 91.1227 108.5 89.914C107.356 88.7053 105.69 88.101 103.502 88.101C101.28 88.101 99.5817 88.7053 98.4057 89.914C97.2624 91.1227 96.4947 92.7233 96.1027 94.716C95.7434 96.676 95.5637 99.077 95.5637 101.919C95.5637 104.859 95.7434 107.325 96.1027 109.318C96.4947 111.311 97.2624 112.911 98.4057 114.12C99.5817 115.329 101.28 115.933 103.502 115.933C105.69 115.933 107.356 115.329 108.5 114.12C109.676 112.911 110.443 111.311 110.803 109.318C111.195 107.325 111.391 104.859 111.391 101.919Z" fill="black"/>
<path d="M91.1537 175.919C91.1537 170.3 92.0684 165.923 93.8977 162.787C95.7271 159.618 98.9284 158.034 103.502 158.034C108.042 158.034 111.227 159.618 113.057 162.787C114.886 165.923 115.801 170.3 115.801 175.919C115.801 181.636 114.886 186.078 113.057 189.247C111.227 192.416 108.042 194 103.502 194C98.9284 194 95.7271 192.416 93.8977 189.247C92.0684 186.078 91.1537 181.636 91.1537 175.919ZM111.391 175.919C111.391 173.077 111.195 170.676 110.803 168.716C110.443 166.723 109.676 165.123 108.5 163.914C107.356 162.705 105.69 162.101 103.502 162.101C101.28 162.101 99.5817 162.705 98.4057 163.914C97.2624 165.123 96.4947 166.723 96.1027 168.716C95.7434 170.676 95.5637 173.077 95.5637 175.919C95.5637 178.859 95.7434 181.325 96.1027 183.318C96.4947 185.311 97.2624 186.911 98.4057 188.12C99.5817 189.329 101.28 189.933 103.502 189.933C105.69 189.933 107.356 189.329 108.5 188.12C109.676 186.911 110.443 185.311 110.803 183.318C111.195 181.325 111.391 178.859 111.391 175.919Z" fill="black"/>
<path d="M158.154 35.919C158.154 30.3003 159.068 25.923 160.898 22.787C162.727 19.6183 165.928 18.034 170.502 18.034C175.042 18.034 178.227 19.6183 180.057 22.787C181.886 25.923 182.801 30.3003 182.801 35.919C182.801 41.6357 181.886 46.0783 180.057 49.247C178.227 52.4157 175.042 54 170.502 54C165.928 54 162.727 52.4157 160.898 49.247C159.068 46.0783 158.154 41.6357 158.154 35.919ZM178.391 35.919C178.391 33.077 178.195 30.676 177.803 28.716C177.443 26.7233 176.676 25.1227 175.5 23.914C174.356 22.7053 172.69 22.101 170.502 22.101C168.28 22.101 166.582 22.7053 165.406 23.914C164.262 25.1227 163.495 26.7233 163.103 28.716C162.743 30.676 162.564 33.077 162.564 35.919C162.564 38.859 162.743 41.3253 163.103 43.318C163.495 45.3107 164.262 46.9113 165.406 48.12C166.582 49.3287 168.28 49.933 170.502 49.933C172.69 49.933 174.356 49.3287 175.5 48.12C176.676 46.9113 177.443 45.3107 177.803 43.318C178.195 41.3253 178.391 38.859 178.391 35.919Z" fill="black"/>
<path d="M158.154 101.919C158.154 96.3003 159.068 91.923 160.898 88.787C162.727 85.6183 165.928 84.034 170.502 84.034C175.042 84.034 178.227 85.6183 180.057 88.787C181.886 91.923 182.801 96.3003 182.801 101.919C182.801 107.636 181.886 112.078 180.057 115.247C178.227 118.416 175.042 120 170.502 120C165.928 120 162.727 118.416 160.898 115.247C159.068 112.078 158.154 107.636 158.154 101.919ZM178.391 101.919C178.391 99.077 178.195 96.676 177.803 94.716C177.443 92.7233 176.676 91.1227 175.5 89.914C174.356 88.7053 172.69 88.101 170.502 88.101C168.28 88.101 166.582 88.7053 165.406 89.914C164.262 91.1227 163.495 92.7233 163.103 94.716C162.743 96.676 162.564 99.077 162.564 101.919C162.564 104.859 162.743 107.325 163.103 109.318C163.495 111.311 164.262 112.911 165.406 114.12C166.582 115.329 168.28 115.933 170.502 115.933C172.69 115.933 174.356 115.329 175.5 114.12C176.676 112.911 177.443 111.311 177.803 109.318C178.195 107.325 178.391 104.859 178.391 101.919Z" fill="black"/>
<path d="M158.154 175.919C158.154 170.3 159.068 165.923 160.898 162.787C162.727 159.618 165.928 158.034 170.502 158.034C175.042 158.034 178.227 159.618 180.057 162.787C181.886 165.923 182.801 170.3 182.801 175.919C182.801 181.636 181.886 186.078 180.057 189.247C178.227 192.416 175.042 194 170.502 194C165.928 194 162.727 192.416 160.898 189.247C159.068 186.078 158.154 181.636 158.154 175.919ZM178.391 175.919C178.391 173.077 178.195 170.676 177.803 168.716C177.443 166.723 176.676 165.123 175.5 163.914C174.356 162.705 172.69 162.101 170.502 162.101C168.28 162.101 166.582 162.705 165.406 163.914C164.262 165.123 163.495 166.723 163.103 168.716C162.743 170.676 162.564 173.077 162.564 175.919C162.564 178.859 162.743 181.325 163.103 183.318C163.495 185.311 164.262 186.911 165.406 188.12C166.582 189.329 168.28 189.933 170.502 189.933C172.69 189.933 174.356 189.329 175.5 188.12C176.676 186.911 177.443 185.311 177.803 183.318C178.195 181.325 178.391 178.859 178.391 175.919Z" fill="black"/>
</svg>
